<svg width="918" height="656" viewBox="0 0 918 656" fill="none" xmlns="http://www.w3.org/2000/svg">
<path d="M162.826 0L162.826 655.514" stroke="url(#paint0_linear_501_836)" stroke-opacity="0.2" stroke-width="1.40367"/>
<path d="M303.193 0L303.193 655.514" stroke="url(#paint1_linear_501_836)" stroke-opacity="0.2" stroke-width="1.40367"/>
<path d="M443.56 0L443.56 655.514" stroke="url(#paint2_linear_501_836)" stroke-opacity="0.2" stroke-width="1.40367"/>
<path d="M583.927 0L583.927 655.514" stroke="url(#paint3_linear_501_836)" stroke-opacity="0.2" stroke-width="1.40367"/>
<path d="M722.891 0L722.89 655.514" stroke="url(#paint4_linear_501_836)" stroke-opacity="0.2" stroke-width="1.40367"/>
<path d="M233.01 0L233.01 655.514" stroke="url(#paint5_linear_501_836)" stroke-opacity="0.2" stroke-width="1.40367"/>
<path d="M373.377 0L373.377 655.514" stroke="url(#paint6_linear_501_836)" stroke-opacity="0.2" stroke-width="1.40367"/>
<path d="M513.744 0L513.744 655.514" stroke="url(#paint7_linear_501_836)" stroke-opacity="0.2" stroke-width="1.40367"/>
<path d="M652.707 0L652.707 655.514" stroke="url(#paint8_linear_501_836)" stroke-opacity="0.2" stroke-width="1.40367"/>
<path d="M793.074 0L793.074 655.514" stroke="url(#paint9_linear_501_836)" stroke-opacity="0.2" stroke-width="1.40367"/>
<path d="M875.89 43.1184L6.74659e-05 43.1183" stroke="url(#paint10_linear_501_836)" stroke-opacity="0.2" stroke-width="1.40367"/>
<path d="M918 183.252L42.1101 183.252" stroke="url(#paint11_linear_501_836)" stroke-opacity="0.2" stroke-width="1.40367"/>
<path d="M918 323.386L42.1101 323.386" stroke="url(#paint12_linear_501_836)" stroke-opacity="0.2" stroke-width="1.40367"/>
<path d="M918 463.52L42.1101 463.52" stroke="url(#paint13_linear_501_836)" stroke-opacity="0.2" stroke-width="1.40367"/>
<path d="M918 113.185L42.1102 113.185" stroke="url(#paint14_linear_501_836)" stroke-opacity="0.2" stroke-width="1.40367"/>
<path d="M918 253.319L42.1101 253.319" stroke="url(#paint15_linear_501_836)" stroke-opacity="0.2" stroke-width="1.40367"/>
<path d="M918 393.453L42.1101 393.453" stroke="url(#paint16_linear_501_836)" stroke-opacity="0.2" stroke-width="1.40367"/>
<path d="M918 533.587L42.1101 533.587" stroke="url(#paint17_linear_501_836)" stroke-opacity="0.2" stroke-width="1.40367"/>
<path d="M654.11 183.881H724.293V254.064H654.11V183.881Z" fill="white" fill-opacity="0.04"/>
<path d="M443.559 42.1101H513.743V112.294H443.559V42.1101Z" fill="white" fill-opacity="0.08"/>
<path d="M303.192 463.211H373.376V533.394H303.192V463.211Z" fill="white" fill-opacity="0.04"/>
<path d="M162.825 183.881H233.009V254.064H162.825V183.881Z" fill="white" fill-opacity="0.04"/>
<path d="M513.743 322.844H583.927V393.027H513.743V322.844Z" fill="white" fill-opacity="0.12"/>
<path d="M722.89 464.615H793.073V534.798H722.89V464.615Z" fill="white" fill-opacity="0.04"/>
<rect x="658.321" y="388.816" width="9.82569" height="9.82569" transform="rotate(90 658.321 388.816)" fill="white" fill-opacity="0.38"/>
<rect x="238.624" y="108.083" width="9.82569" height="9.82569" transform="rotate(90 238.624 108.083)" fill="white" fill-opacity="0.38"/>
<rect x="517.954" y="178.266" width="9.82569" height="9.82569" transform="rotate(90 517.954 178.266)" fill="white" fill-opacity="0.38"/>
<rect x="728.504" y="108.083" width="9.82569" height="9.82569" transform="rotate(90 728.504 108.083)" fill="white" fill-opacity="0.38"/>
<rect x="308.807" y="597.963" width="9.82569" height="9.82569" transform="rotate(90 308.807 597.963)" fill="white" fill-opacity="0.38"/>
<rect x="378.991" y="388.816" width="9.82569" height="9.82569" transform="rotate(90 378.991 388.816)" fill="white" fill-opacity="0.38"/>
<defs>
<linearGradient id="paint0_linear_501_836" x1="163.326" y1="2.16579e-08" x2="163.326" y2="655.514" gradientUnits="userSpaceOnUse">
<stop stop-color="white" stop-opacity="0"/>
<stop offset="0.552083" stop-color="white"/>
<stop offset="1" stop-color="white" stop-opacity="0"/>
</linearGradient>
<linearGradient id="paint1_linear_501_836" x1="303.693" y1="2.16579e-08" x2="303.693" y2="655.514" gradientUnits="userSpaceOnUse">
<stop stop-color="white" stop-opacity="0"/>
<stop offset="0.552083" stop-color="white"/>
<stop offset="1" stop-color="white" stop-opacity="0"/>
</linearGradient>
<linearGradient id="paint2_linear_501_836" x1="444.06" y1="2.16579e-08" x2="444.06" y2="655.514" gradientUnits="userSpaceOnUse">
<stop stop-color="white" stop-opacity="0"/>
<stop offset="0.552083" stop-color="white"/>
<stop offset="1" stop-color="white" stop-opacity="0"/>
</linearGradient>
<linearGradient id="paint3_linear_501_836" x1="584.427" y1="2.16579e-08" x2="584.427" y2="655.514" gradientUnits="userSpaceOnUse">
<stop stop-color="white" stop-opacity="0"/>
<stop offset="0.552083" stop-color="white"/>
<stop offset="1" stop-color="white" stop-opacity="0"/>
</linearGradient>
<linearGradient id="paint4_linear_501_836" x1="723.391" y1="2.16579e-08" x2="723.39" y2="655.514" gradientUnits="userSpaceOnUse">
<stop stop-color="white" stop-opacity="0"/>
<stop offset="0.552083" stop-color="white"/>
<stop offset="1" stop-color="white" stop-opacity="0"/>
</linearGradient>
<linearGradient id="paint5_linear_501_836" x1="233.51" y1="2.16579e-08" x2="233.51" y2="655.514" gradientUnits="userSpaceOnUse">
<stop stop-color="white" stop-opacity="0"/>
<stop offset="0.552083" stop-color="white"/>
<stop offset="1" stop-color="white" stop-opacity="0"/>
</linearGradient>
<linearGradient id="paint6_linear_501_836" x1="373.877" y1="2.16579e-08" x2="373.877" y2="655.514" gradientUnits="userSpaceOnUse">
<stop stop-color="white" stop-opacity="0"/>
<stop offset="0.552083" stop-color="white"/>
<stop offset="1" stop-color="white" stop-opacity="0"/>
</linearGradient>
<linearGradient id="paint7_linear_501_836" x1="514.244" y1="2.16579e-08" x2="514.244" y2="655.514" gradientUnits="userSpaceOnUse">
<stop stop-color="white" stop-opacity="0"/>
<stop offset="0.552083" stop-color="white"/>
<stop offset="1" stop-color="white" stop-opacity="0"/>
</linearGradient>
<linearGradient id="paint8_linear_501_836" x1="653.207" y1="2.16579e-08" x2="653.207" y2="655.514" gradientUnits="userSpaceOnUse">
<stop stop-color="white" stop-opacity="0"/>
<stop offset="0.552083" stop-color="white"/>
<stop offset="1" stop-color="white" stop-opacity="0"/>
</linearGradient>
<linearGradient id="paint9_linear_501_836" x1="793.574" y1="2.16579e-08" x2="793.574" y2="655.514" gradientUnits="userSpaceOnUse">
<stop stop-color="white" stop-opacity="0"/>
<stop offset="0.552083" stop-color="white"/>
<stop offset="1" stop-color="white" stop-opacity="0"/>
</linearGradient>
<linearGradient id="paint10_linear_501_836" x1="875.89" y1="43.6184" x2="5.21634e-05" y2="43.6183" gradientUnits="userSpaceOnUse">
<stop stop-color="white" stop-opacity="0.37"/>
<stop offset="0.520833" stop-color="white"/>
<stop offset="1" stop-color="white" stop-opacity="0"/>
</linearGradient>
<linearGradient id="paint11_linear_501_836" x1="918" y1="183.752" x2="42.11" y2="183.752" gradientUnits="userSpaceOnUse">
<stop stop-color="white" stop-opacity="0.15"/>
<stop offset="0.520833" stop-color="white"/>
<stop offset="1" stop-color="white" stop-opacity="0"/>
</linearGradient>
<linearGradient id="paint12_linear_501_836" x1="918" y1="323.886" x2="42.11" y2="323.886" gradientUnits="userSpaceOnUse">
<stop stop-color="white" stop-opacity="0.15"/>
<stop offset="0.520833" stop-color="white"/>
<stop offset="1" stop-color="white" stop-opacity="0"/>
</linearGradient>
<linearGradient id="paint13_linear_501_836" x1="918" y1="464.02" x2="42.11" y2="464.02" gradientUnits="userSpaceOnUse">
<stop stop-color="white" stop-opacity="0.15"/>
<stop offset="0.520833" stop-color="white"/>
<stop offset="1" stop-color="white" stop-opacity="0"/>
</linearGradient>
<linearGradient id="paint14_linear_501_836" x1="918" y1="113.685" x2="42.1102" y2="113.685" gradientUnits="userSpaceOnUse">
<stop stop-color="white" stop-opacity="0.15"/>
<stop offset="0.520833" stop-color="white"/>
<stop offset="1" stop-color="white" stop-opacity="0"/>
</linearGradient>
<linearGradient id="paint15_linear_501_836" x1="918" y1="253.819" x2="42.11" y2="253.819" gradientUnits="userSpaceOnUse">
<stop stop-color="white" stop-opacity="0.15"/>
<stop offset="0.520833" stop-color="white"/>
<stop offset="1" stop-color="white" stop-opacity="0"/>
</linearGradient>
<linearGradient id="paint16_linear_501_836" x1="918" y1="393.953" x2="42.11" y2="393.953" gradientUnits="userSpaceOnUse">
<stop stop-color="white" stop-opacity="0.15"/>
<stop offset="0.520833" stop-color="white"/>
<stop offset="1" stop-color="white" stop-opacity="0"/>
</linearGradient>
<linearGradient id="paint17_linear_501_836" x1="918" y1="534.087" x2="42.11" y2="534.087" gradientUnits="userSpaceOnUse">
<stop stop-color="white" stop-opacity="0.15"/>
<stop offset="0.520833" stop-color="white"/>
<stop offset="1" stop-color="white" stop-opacity="0"/>
</linearGradient>
</defs>
</svg>
