<svg width="24" height="24" viewBox="0 0 24 24" fill="none" xmlns="http://www.w3.org/2000/svg">
<path d="M2.66667 0H21.3333C22.0406 0 22.7189 0.280951 23.219 0.781048C23.719 1.28115 24 1.95942 24 2.66667V21.3333C24 22.04 23.72 22.72 23.2133 23.2133C22.72 23.72 22.04 24 21.3333 24H2.66667C1.96 24 1.28 23.72 0.786667 23.2133C0.28 22.72 0 22.04 0 21.3333V2.66667C0 1.18667 1.18667 0 2.66667 0ZM12 18.6667L14.08 14.1067L18.6667 12L14.08 9.92L12 5.33333L9.90667 9.92L5.33333 12L9.90667 14.1067L12 18.6667Z" fill="#7043E3"/>
</svg>
