<svg width="26" height="25" viewBox="0 0 26 25" fill="none" xmlns="http://www.w3.org/2000/svg">
<path d="M12.2563 1.56816C12.7067 0.685653 13.9677 0.685653 14.4181 1.56816L17.4218 7.45396C17.5981 7.79946 17.929 8.03985 18.312 8.10078L24.838 9.13867C25.8165 9.29429 26.2061 10.4936 25.506 11.1946L20.8365 15.8701C20.5624 16.1446 20.436 16.5335 20.4964 16.9167L21.5259 23.4439C21.6803 24.4226 20.6601 25.1638 19.7771 24.7146L13.8874 21.7184C13.5417 21.5425 13.1327 21.5425 12.787 21.7184L6.89733 24.7146C6.01424 25.1638 4.99408 24.4226 5.14845 23.4439L6.17797 16.9167C6.23841 16.5335 6.11203 16.1446 5.83792 15.8701L1.16839 11.1946C0.468253 10.4936 0.857919 9.29429 1.83641 9.13867L8.36233 8.10078C8.74541 8.03985 9.07628 7.79946 9.2526 7.45396L12.2563 1.56816Z" fill="url(#paint0_linear_453_6346)"/>
<defs>
<linearGradient id="paint0_linear_453_6346" x1="13.3372" y1="-0.549805" x2="13.3372" y2="28.5738" gradientUnits="userSpaceOnUse">
<stop stop-color="#FFEA2B"/>
<stop offset="1" stop-color="#FFB802"/>
</linearGradient>
</defs>
</svg>
